<?xml version="1.0" encoding="UTF-8"?>
<svg width="700pt" height="700pt" version="1.1" viewBox="0 0 700 700" xmlns="http://www.w3.org/2000/svg" xmlns:xlink="http://www.w3.org/1999/xlink">
 <defs>
  <symbol id="t" overflow="visible">
   <path d="m3.6562-0.21875c-0.1875 0.09375-0.38672 0.16797-0.59375 0.21875-0.19922 0.050781-0.40625 0.078125-0.625 0.078125-0.66797 0-1.1992-0.17969-1.5938-0.54688-0.38672-0.375-0.57812-0.87891-0.57812-1.5156 0-0.64453 0.19141-1.1484 0.57812-1.5156 0.39453-0.375 0.92578-0.5625 1.5938-0.5625 0.21875 0 0.42578 0.027344 0.625 0.078125 0.20703 0.054687 0.40625 0.125 0.59375 0.21875v0.82812c-0.1875-0.125-0.375-0.21875-0.5625-0.28125-0.17969-0.0625-0.37109-0.09375-0.57812-0.09375-0.36719 0-0.65625 0.12109-0.875 0.35938-0.21094 0.23047-0.3125 0.55469-0.3125 0.96875 0 0.40625 0.10156 0.73047 0.3125 0.96875 0.21875 0.23047 0.50781 0.34375 0.875 0.34375 0.20703 0 0.39844-0.023437 0.57812-0.078125 0.1875-0.0625 0.375-0.16016 0.5625-0.29688z"/>
  </symbol>
  <symbol id="d" overflow="visible">
   <path d="m2.6875-2.1719c-0.085938-0.039063-0.16797-0.070313-0.25-0.09375-0.085938-0.019531-0.16797-0.03125-0.25-0.03125-0.25 0-0.44531 0.085937-0.57812 0.25-0.125 0.15625-0.1875 0.38281-0.1875 0.67188v1.375h-0.96875v-2.9844h0.96875v0.48438c0.11328-0.19531 0.25-0.33594 0.40625-0.42188 0.16406-0.09375 0.35938-0.14062 0.57812-0.14062h0.10938c0.039063 0 0.09375 0.007812 0.15625 0.015625z"/>
  </symbol>
  <symbol id="a" overflow="visible">
   <path d="m3.4375-1.5v0.26562h-2.2344c0.03125 0.23047 0.11328 0.40234 0.25 0.51562 0.13281 0.10547 0.32812 0.15625 0.57812 0.15625 0.20703 0 0.41406-0.023438 0.625-0.078125 0.20703-0.0625 0.42188-0.15625 0.64062-0.28125v0.73438c-0.21875 0.09375-0.44531 0.16406-0.67188 0.20312-0.23047 0.039062-0.45312 0.0625-0.67188 0.0625-0.54297 0-0.96484-0.13281-1.2656-0.40625-0.30469-0.28125-0.45312-0.67188-0.45312-1.1719 0-0.47656 0.14453-0.85938 0.4375-1.1406 0.30078-0.28125 0.70703-0.42188 1.2188-0.42188 0.46875 0 0.84375 0.14062 1.125 0.42188s0.42188 0.66406 0.42188 1.1406zm-0.96875-0.32812c0-0.17578-0.058594-0.31641-0.17188-0.42188-0.10547-0.11328-0.24219-0.17188-0.40625-0.17188-0.1875 0-0.33984 0.054687-0.45312 0.15625-0.11719 0.10547-0.1875 0.25-0.21875 0.4375z"/>
  </symbol>
  <symbol id="k" overflow="visible">
   <path d="m1.7969-1.3438c-0.19922 0-0.35156 0.039062-0.45312 0.10938-0.09375 0.0625-0.14062 0.16406-0.14062 0.29688 0 0.11719 0.035156 0.21094 0.10938 0.28125 0.082031 0.0625 0.19531 0.09375 0.34375 0.09375 0.17578 0 0.32812-0.0625 0.45312-0.1875s0.1875-0.28516 0.1875-0.48438v-0.10938zm1.4688-0.35938v1.7031h-0.96875v-0.4375c-0.125 0.17969-0.27344 0.30859-0.4375 0.39062-0.15625 0.082031-0.35156 0.125-0.57812 0.125-0.3125 0-0.57031-0.085938-0.76562-0.26562-0.1875-0.1875-0.28125-0.42188-0.28125-0.70312 0-0.35156 0.11719-0.61328 0.35938-0.78125 0.23828-0.16406 0.61719-0.25 1.1406-0.25h0.5625v-0.0625c0-0.15625-0.0625-0.26562-0.1875-0.32812-0.11719-0.070312-0.29688-0.10938-0.54688-0.10938-0.21094 0-0.40234 0.023437-0.57812 0.0625-0.17969 0.042969-0.33984 0.10156-0.48438 0.17188v-0.71875c0.19531-0.050781 0.39844-0.085938 0.60938-0.10938 0.20703-0.03125 0.41406-0.046875 0.625-0.046875 0.53906 0 0.92969 0.10938 1.1719 0.32812 0.23828 0.21094 0.35938 0.55469 0.35938 1.0312z"/>
  </symbol>
  <symbol id="c" overflow="visible">
   <path d="m1.5-3.8438v0.85938h0.98438v0.67188h-0.98438v1.2812c0 0.13672 0.023438 0.23047 0.078125 0.28125 0.0625 0.042969 0.17578 0.0625 0.34375 0.0625h0.48438v0.6875h-0.8125c-0.38672 0-0.65625-0.078125-0.8125-0.23438s-0.23438-0.42188-0.23438-0.79688v-1.2812h-0.46875v-0.67188h0.46875v-0.85938z"/>
  </symbol>
  <symbol id="j" overflow="visible">
   <path d="m2.5-2.5469v-1.6094h0.95312v4.1562h-0.95312v-0.4375c-0.13672 0.17969-0.28125 0.30859-0.4375 0.39062-0.15625 0.082031-0.33984 0.125-0.54688 0.125-0.375 0-0.68359-0.14453-0.92188-0.4375-0.23047-0.28906-0.34375-0.67188-0.34375-1.1406 0-0.45703 0.11328-0.83203 0.34375-1.125 0.23828-0.28906 0.54688-0.4375 0.92188-0.4375 0.19531 0 0.375 0.042969 0.53125 0.125 0.16406 0.085938 0.31641 0.21484 0.45312 0.39062zm-0.64062 1.9375c0.20703 0 0.36328-0.070313 0.46875-0.21875 0.11328-0.15625 0.17188-0.37891 0.17188-0.67188 0-0.28125-0.058594-0.49219-0.17188-0.64062-0.10547-0.15625-0.26172-0.23438-0.46875-0.23438-0.19922 0-0.35547 0.078125-0.46875 0.23438-0.10547 0.14844-0.15625 0.35938-0.15625 0.64062 0 0.29297 0.050781 0.51562 0.15625 0.67188 0.11328 0.14844 0.26953 0.21875 0.46875 0.21875z"/>
  </symbol>
  <symbol id="i" overflow="visible">
   <path d="m2.0469-0.60938c0.20703 0 0.36328-0.070313 0.46875-0.21875 0.11328-0.15625 0.17188-0.37891 0.17188-0.67188 0-0.28125-0.058594-0.49219-0.17188-0.64062-0.10547-0.15625-0.26172-0.23438-0.46875-0.23438-0.19922 0-0.35547 0.078125-0.46875 0.23438-0.10547 0.14844-0.15625 0.35938-0.15625 0.64062 0 0.29297 0.050781 0.51562 0.15625 0.67188 0.11328 0.14844 0.26953 0.21875 0.46875 0.21875zm-0.625-1.9375c0.125-0.17578 0.26562-0.30469 0.42188-0.39062 0.16406-0.082031 0.35156-0.125 0.5625-0.125 0.36328 0 0.66406 0.14844 0.90625 0.4375 0.23828 0.29297 0.35938 0.66797 0.35938 1.125 0 0.46875-0.12109 0.85156-0.35938 1.1406-0.24219 0.29297-0.54297 0.4375-0.90625 0.4375-0.21094 0-0.39844-0.042969-0.5625-0.125-0.15625-0.082031-0.29688-0.21094-0.42188-0.39062v0.4375h-0.96875v-4.1562h0.96875z"/>
  </symbol>
  <symbol id="h" overflow="visible">
   <path d="m0.0625-2.9844h0.95312l0.8125 2.0156 0.6875-2.0156h0.95312l-1.2656 3.2656c-0.125 0.33203-0.27344 0.56641-0.4375 0.70312-0.16797 0.13281-0.39062 0.20312-0.67188 0.20312h-0.54688v-0.64062h0.29688c0.16406 0 0.28516-0.027344 0.35938-0.078125 0.070313-0.054688 0.12891-0.14062 0.17188-0.26562l0.03125-0.09375z"/>
  </symbol>
  <symbol id="e" overflow="visible">
   <path d="m3.2344-2.5c0.11328-0.17578 0.25391-0.3125 0.42188-0.40625 0.16406-0.10156 0.35156-0.15625 0.5625-0.15625 0.33203 0 0.58594 0.10938 0.76562 0.32812 0.1875 0.21094 0.28125 0.51172 0.28125 0.90625v1.8281h-0.96875v-1.5625c0.007813-0.019531 0.015625-0.039062 0.015625-0.0625v-0.10938c0-0.21875-0.03125-0.375-0.09375-0.46875s-0.16406-0.14062-0.29688-0.14062c-0.1875 0-0.33594 0.078125-0.4375 0.23438-0.09375 0.14844-0.14062 0.35938-0.14062 0.64062v1.4688h-0.96875v-1.5625c0-0.33203-0.03125-0.54688-0.09375-0.64062-0.054688-0.09375-0.15234-0.14062-0.29688-0.14062-0.17969 0-0.32031 0.078125-0.42188 0.23438-0.09375 0.14844-0.14062 0.35938-0.14062 0.64062v1.4688h-0.96875v-2.9844h0.96875v0.4375c0.11328-0.17578 0.24219-0.30469 0.39062-0.39062 0.15625-0.082031 0.32812-0.125 0.51562-0.125 0.20703 0 0.39062 0.054688 0.54688 0.15625 0.15625 0.09375 0.27344 0.23047 0.35938 0.40625z"/>
  </symbol>
  <symbol id="b" overflow="visible">
   <path d="m1.875-2.375c-0.21094 0-0.37109 0.078125-0.48438 0.23438-0.10547 0.14844-0.15625 0.35938-0.15625 0.64062 0 0.29297 0.050781 0.51562 0.15625 0.67188 0.11328 0.14844 0.27344 0.21875 0.48438 0.21875 0.20703 0 0.36719-0.070313 0.48438-0.21875 0.11328-0.15625 0.17188-0.37891 0.17188-0.67188 0-0.28125-0.058594-0.49219-0.17188-0.64062-0.11719-0.15625-0.27734-0.23438-0.48438-0.23438zm0-0.6875c0.51953 0 0.92188 0.14062 1.2031 0.42188 0.28906 0.27344 0.4375 0.65234 0.4375 1.1406 0 0.5-0.14844 0.89062-0.4375 1.1719-0.28125 0.27344-0.68359 0.40625-1.2031 0.40625-0.51172 0-0.91406-0.13281-1.2031-0.40625-0.29297-0.28125-0.4375-0.67188-0.4375-1.1719 0-0.48828 0.14453-0.86719 0.4375-1.1406 0.28906-0.28125 0.69141-0.42188 1.2031-0.42188z"/>
  </symbol>
  <symbol id="g" overflow="visible">
   <path d="m3.4688-1.8281v1.8281h-0.96875v-1.3906c0-0.25781-0.007812-0.4375-0.015625-0.53125-0.011719-0.10156-0.03125-0.17578-0.0625-0.21875-0.03125-0.0625-0.085937-0.10938-0.15625-0.14062-0.0625-0.039062-0.13281-0.0625-0.20312-0.0625-0.21094 0-0.37109 0.078125-0.48438 0.23438-0.10547 0.15625-0.15625 0.37109-0.15625 0.64062v1.4688h-0.96875v-2.9844h0.96875v0.4375c0.13281-0.17578 0.28516-0.30469 0.45312-0.39062 0.16406-0.082031 0.34375-0.125 0.53125-0.125 0.34375 0 0.60156 0.10938 0.78125 0.32812 0.1875 0.21094 0.28125 0.51172 0.28125 0.90625z"/>
  </symbol>
  <symbol id="f" overflow="visible">
   <path d="m0.45312-4.1562h0.96875v2.2656l1.0938-1.0938h1.1094l-1.4531 1.3594 1.5625 1.625h-1.1562l-1.1562-1.25v1.25h-0.96875z"/>
  </symbol>
  <symbol id="s" overflow="visible">
   <path d="m0.45312-2.9844h0.96875v2.9844h-0.96875zm0-1.1719h0.96875v0.78125h-0.96875z"/>
  </symbol>
  <symbol id="r" overflow="visible">
   <path d="m2.4219-4.1562v0.625h-0.51562c-0.13672 0-0.23438 0.027344-0.29688 0.078125-0.054687 0.054687-0.078125 0.13672-0.078125 0.25v0.21875h0.82812v0.67188h-0.82812v2.3125h-0.95312v-2.3125h-0.46875v-0.67188h0.46875v-0.21875c0-0.32031 0.085937-0.5625 0.26562-0.71875 0.1875-0.15625 0.47266-0.23438 0.85938-0.23438z"/>
  </symbol>
  <symbol id="q" overflow="visible">
   <path d="m3.4688-1.8281v1.8281h-0.96875v-1.3906c0-0.25781-0.007812-0.4375-0.015625-0.53125-0.011719-0.10156-0.03125-0.17578-0.0625-0.21875-0.03125-0.0625-0.085937-0.10938-0.15625-0.14062-0.0625-0.039062-0.13281-0.0625-0.20312-0.0625-0.21094 0-0.37109 0.078125-0.48438 0.23438-0.10547 0.15625-0.15625 0.37109-0.15625 0.64062v1.4688h-0.96875v-4.1562h0.96875v1.6094c0.13281-0.17578 0.28516-0.30469 0.45312-0.39062 0.16406-0.082031 0.34375-0.125 0.53125-0.125 0.34375 0 0.60156 0.10938 0.78125 0.32812 0.1875 0.21094 0.28125 0.51172 0.28125 0.90625z"/>
  </symbol>
  <symbol id="p" overflow="visible">
   <path d="m0.5-3.9844h1.1562l1.4375 2.7344v-2.7344h0.98438v3.9844h-1.1562l-1.4375-2.7344v2.7344h-0.98438z"/>
  </symbol>
  <symbol id="o" overflow="visible">
   <path d="m0.42188-1.1719v-1.8125h0.96875v0.29688 0.60938 0.48438c0 0.24219 0.003906 0.41797 0.015625 0.53125 0.007812 0.10547 0.03125 0.17969 0.0625 0.21875 0.039062 0.0625 0.09375 0.11719 0.15625 0.15625 0.0625 0.03125 0.13281 0.046875 0.21875 0.046875 0.19531 0 0.35156-0.078125 0.46875-0.23438 0.11328-0.15625 0.17188-0.36719 0.17188-0.64062v-1.4688h0.95312v2.9844h-0.95312v-0.4375c-0.14844 0.17969-0.30469 0.30859-0.46875 0.39062-0.15625 0.082031-0.33594 0.125-0.53125 0.125-0.34375 0-0.60938-0.10156-0.79688-0.3125-0.17969-0.21875-0.26562-0.53125-0.26562-0.9375z"/>
  </symbol>
  <symbol id="n" overflow="visible">
   <path d="m0.5-3.9844h1.7031c0.50781 0 0.89844 0.11719 1.1719 0.34375 0.26953 0.21875 0.40625 0.53906 0.40625 0.95312 0 0.41797-0.13672 0.74219-0.40625 0.96875-0.27344 0.21875-0.66406 0.32812-1.1719 0.32812h-0.67188v1.3906h-1.0312zm1.0312 0.75v1.1094h0.5625c0.19531 0 0.34766-0.046875 0.45312-0.14062 0.11328-0.10156 0.17188-0.24219 0.17188-0.42188 0-0.17578-0.058594-0.3125-0.17188-0.40625-0.10547-0.09375-0.25781-0.14062-0.45312-0.14062z"/>
  </symbol>
  <symbol id="m" overflow="visible">
   <path d="m0.45312-2.9844h0.96875v2.9375c0 0.39453-0.10156 0.69531-0.29688 0.90625-0.1875 0.21875-0.46484 0.32812-0.82812 0.32812h-0.48438v-0.64062h0.17188c0.17578 0 0.29688-0.042969 0.35938-0.125 0.070312-0.074219 0.10938-0.23047 0.10938-0.46875zm0-1.1719h0.96875v0.78125h-0.96875z"/>
  </symbol>
  <symbol id="l" overflow="visible">
   <path d="m2.875-2.8906v0.76562c-0.125-0.082031-0.25781-0.14453-0.39062-0.1875-0.13672-0.039062-0.27344-0.0625-0.40625-0.0625-0.27344 0-0.48047 0.078125-0.625 0.23438-0.14844 0.15625-0.21875 0.37109-0.21875 0.64062 0 0.28125 0.070313 0.5 0.21875 0.65625 0.14453 0.15625 0.35156 0.23438 0.625 0.23438 0.14453 0 0.28516-0.019531 0.42188-0.0625 0.13281-0.039063 0.25781-0.10938 0.375-0.20312v0.78125c-0.14844 0.0625-0.29688 0.10156-0.45312 0.125-0.15625 0.03125-0.3125 0.046875-0.46875 0.046875-0.54297 0-0.96484-0.13281-1.2656-0.40625-0.30469-0.28125-0.45312-0.67188-0.45312-1.1719 0-0.48828 0.14844-0.86719 0.45312-1.1406 0.30078-0.28125 0.72266-0.42188 1.2656-0.42188 0.15625 0 0.3125 0.015625 0.46875 0.046875 0.15625 0.023437 0.30469 0.0625 0.45312 0.125z"/>
  </symbol>
 </defs>
 <g>
  <path d="m396.61 320.4s0 0.007812-0.003907 0.011718c0.023438-0.007812 0.10156-0.023437 0.003907-0.011718z"/>
  <path d="m593.57 405.2c-8.0859-11.449-19.801-19.172-32.703-22.434-1.6602-8.7344-9.5781-16.098-18.391-16.629-8.9297-5.6836-19.695-11.609-29.652-17.145 4.0859-4.0703 7.8867-7.8555 11.332-11.281-31.91-6.8594-27.152-5.8398-45.195-9.707 17.875-17.453 41.445-39.875 60.387-58.391 12.523-12.102 27.328-25.082 36.777-43.793 25.59-44.531 12.426-99.098-33.633-122.97-37.32-21.094-95.215-27.664-135.36-20.848-1.0273-0.55859-2.1055-1.0312-3.2344-1.3867 1.1406-1.1523 2.8398-1.4453 0.44141-2.4219-10.852-5.8242-22.898-11.223-32.68-16.098-4.7109-19.828-6.5078-39.047-13.613-59.102 0.050781-0.070312-0.09375 0.050781-0.089844 0.023438-4.7969-3.8828-11.945-2.3359-17.852-3.0195-23-0.011719-51.152-0.16406-75.016 3.8281-8.7188 1.4062-17.707 53.848-20.516 63.973-6.0078 4.5938-18.707 12.09-22.172 16.93h-0.003906c-0.011719-0.011719-0.046875-0.042969-0.046875-0.042969-26.062 0.63672-23.852 41.141 2.207 38.629-6.5898 13.133 4.5547 29.871 19.27 27.73 1.1602 10.691 5.5078 21.445 11.824 30.012-14.023 28.785-17.777 79.387-16.07 114.7-15.258 7.0781-31.445 14.664-45.992 21.48-0.023437-0.019532-0.042968-0.039063-0.066406-0.058594-3.0234 1.4453-6.3984 2.9219-9.5625 4.5977l-11.855-18.863c-2.3164-5.5391-7.4141-9.2852-13.168-10.484-20.23-3.168-59.523 19.875-52.457 43.562-1.0859 0.63672-2.1953 1.2812-3.332 1.9453 20.633 29.68 47.176 67.617 69.926 100.01 18.953-12.887 39.133-26.828 57.539-39.539-5.5195-8.6484-11.27-17.277-16.812-25.781 6.7148-1.6914 13.488-3.418 20.047-5.1328l0.10156 0.097656c1.0781-0.30469 5.3477-1.5391 6.3633-1.7773-0.93359 7.8164-0.78125 27.199 0.3125 40.324-0.27344 1.0781 2.1797 0.42188 2.7852 0.62109 0.48047 14.617 0.45312 39.48 8.2773 54.145 6.3555 7.1875 12.305-3.5156 12.668-9.793 3.4375 13.531 15.656 16.469 17.766 0.88281 3.457 9.2969 12.961 10.043 14.633-0.30469 20.008 22.484 14.559-35.441 14.023-44.574h0.44922c-0.27734-17.34 0.14844-37.125 0.69922-54.801 12.82 30.973 29.137 65.457 43.336 94.016-26.273 13.355-102.48 19.574-78.629 65.867 15.465 26.223 48.508 32.789 74.969 19.762-0.44141 1.6836-0.70703 5.4727 0.9375 5.9375 1.5898-0.32812 2.3242-3.8398 3.7891-4.918 6.2305-1.1836 12.52-3.5703 18.68-5.3555 19.691 13.848-7.5117 36.48-19.25 16.312-6.0859-15.711-6.8516 4.6094-0.61328 9.4297 22.031 21.629 50.699-15.09 25.27-31.973l151.53-55.582c-0.62109 5.0195 1.3086 6.6523 3.7461 1.5156 0.3125-0.41797 0.60938-0.6875 1.1484-0.61719 6.5859-1.2031 13.574-4.0156 19.859-5.6211 17.652 14.945-9.6094 34.84-20.418 15.516-6.0312-15.602-6.8477 4.5547-0.6875 9.375 21.246 21.363 50.234-13.383 26.398-31.188l18.199-6.6758c17.492-6.4141 24.125-27.688 13.375-42.91zm-108.57-28.531c-3.8945 6.6172-8.8477 15.035-13.203 22.773-2.2656-0.83984-4.5742-2.0078-6.8242-2.9297 6.8945-6.832 13.613-13.488 20.027-19.844zm-255.09-287.49c-3.6133-2.3555-5.9727-3.9648-7.0273-4.3672 7.2812-2.6445 18.262-9.6172 25.898-13.992 5.4922-19.164 10.336-38.945 17.504-57.828 0.50781-0.98438 0.69531-2.4219 2.0156-2.3516 26.895-2.6484 56.938-3.3047 82.688-1.5781-17.977 18.129-37.051 25.105-62.266 16.992-6.1094-1.0117-27.516-15.547-15.266-1.1641 22.359 20.645 65.484 16.508 79.098-11.992 4.3164 18.656 7.6562 35.637 11.27 53.293-25.77 16.73-59.891 20.828-89.844 13.102-7.3477-1.2969-38.105-16.812-19.219-1.5195 26.129 19.996 90.734 19.281 109.95-9.6133 3.1758 1.5391 22.918 11.109 25.652 12.438h0.011718v0.007813l0.003907-0.003907c-47.953 33.102-111 45.012-160.47 8.582zm23.68 71.594c-6.125-16.555-2.8555-39.945-5.8438-55.617 4.9766 2.7773 11 5.6836 17 7.8008-14.188-1.3359-14.605 28.469-0.84375 28.469 11.398 0.31641 13.676-22.566 4.0898-27.348 32.535 10.883 69.82 2.1992 100.14-11.066-2.9922 22.953 2.7891 52.938-13.426 72.746-26.754 37.105-86.09 28.078-101.11-14.984zm-7.0352 114.84c3.0117-38.812 7.0234-56.762 10.883-92.223 19.863 24.863 54.508 31.164 81.664 16.609-6.8672 18.266-13.266 38.875-19.906 59.129-24.867 11.227-49.773 22.805-74.645 34.332 0.72656-4.9766 1.3633-11.418 2-17.848zm-94.238 49.543c-2.7539-0.23438-3.0625-0.31641-7.1836-0.59766-4.1094 0.58594 6.5625-6.4336 2.1133-7.4492-7.5508-0.33203-19.426 8.2969-9.2188 14.695 4.332 1.3477 10.543 1.3828 14.258 1.832-12.109 7.8516-31.23 17.496-43.07 5.6797-0.003906-0.019531-0.007812-0.023438-0.019531-0.042969 0.12891-8.3242 1.8711-16.656 9.7812-22.742 12.352-11.504 51.504-29.832 45.098 0.71484-2.7812-5.9609-15.469-6.5117-15.895 0.53516 0.93359 1.5039 5.9375-0.15625 7.625 1.4414 1.7422 0.98047 2.5742 3.543 1.3242 5.1289-1.3203 0.80859-3.0977 0.75-4.8164 0.80469zm74.426 35.598c-5.7812 1.5664-11.305 3.0742-17.574 4.7734-0.1875-0.23828-0.36719-0.66797-0.60547-0.85156-0.11719 0.375-0.23047 0.73828-0.34766 1.1094-0.67578 0.18359-1.3438 0.36719-2.0234 0.55078-0.72266 1.9844-11.375 35.684-12.484 27.246-0.19922-10.758 0.49609-19.438 2.7969-29.645l-4.6602-1.1016c-2.8242 8.3711-7.4688 17.445-11.562 25.734-0.050781 0.007813-0.054687-0.054687-0.050781-0.039062-0.003906 0.003906-0.015625 0.003906-0.019531 0 0.91406-9.1289 2.3789-20.312 5.043-29.617l-0.015624-0.003906c0.023437-0.097656 0.046874-0.19531 0.070312-0.28906l-6.8555-1.9961c-0.03125 0.09375-0.070312 0.1875-0.10156 0.28125l-0.007813-0.003906c-3.5586 10.008-7.6484 20.328-13.43 29.258-0.054688 0.003906-0.054688-0.042969-0.050781-0.03125-0.007813 0.042969-0.007813 0.039062 0 0 2.2305-10.988 6.8867-22.723 11.238-33.176 2.0312-3.9297-2.875-8.1836-6.457-5.5547-5.4258 6.2266-10.066 13.523-15.738 19.258 6.625-18.266 20.699-31.859 38.012-39.352 7.9336 7.6328 27.023 25.902 34.867 33.426l-0.035156 0.023438zm14.293-3.9766-4.7266 1.3438c-7.793-7.4688-28.164-26.992-36.227-34.719 2.7266-1.3047 5.5781-2.668 8.5195-4.0703 0.15625 4.582 16.57 18.555 16.57 18.555 6.1016 4.8594 11 10.559 22.613 16.914zm63.043 74.508c-0.15234 4.875-0.23047 9.5508-1.0469 14.184-3.4453-5.9883-5.1211-16.176-6.7148-22.488l-8.2773 1.3203c0.90625 9.5156 1.2109 15.348 0.85547 22.16-3.4375-8.1602-5.8711-16.773-8.168-25.332l-8.3008 1.6797c0.92578 8.1367 2.7266 19.207 1.1406 29.137-3.8906-8.6016-5.875-18.516-7.8711-27.988l-7.7539 0.87109c0.26563 9.5742 0.83594 19.762-1.4844 29.117-1.1758 1.293-1.6562-1.8516-2.0273-2.6523-4.2539-14.207-6.1562-32.023-8.8438-44.492 20.008 0.37891 39.688 0.35156 58.152 0.33203 0.3125 7.9727 0.5 16.156 0.33984 24.152zm-57.469-43.035c4.4922 3.0234 25.871 2.957 25.871 2.957 8.2188-0.29688 16.871 0.91016 30.48-1.9922-0.12891 3.2109-0.10547 6.3945-0.21875 9.4688-0.015625-0.011719-0.023438-0.015626-0.027344-0.019532-17.324 0.003906-35.691-0.10547-54.621 0.27344-0.19141 0.074218-0.375 0.10938-0.39844-0.14844-0.42969-3.5117-0.71875-7.1055-1.0898-10.539zm58.312-27.035c-0.85938 7.6133-1.4648 15.844-1.7891 23.523-13.703-2.8594-22.988-1.7344-31.219-2.0156 0 0-21.648-0.14453-25.539 3.2266-0.90234-8.793-1.7891-16.598-2.7695-21.094 21.996-6.3945 42.586-13.039 64.035-21.57-0.98828 4.7148-1.957 11.023-2.7188 17.926zm-4.6875-24.125c-16.621 6.4375-31.395 11.312-48.141 16.41-1.6406-5.1992-16.43-17.789-16.43-17.789-5.6992-4.3789-13.43-13.023-24.512-17.602 35.5-16.922 77.242-36.961 113.16-54.559 5.8594-20.668 13.184-45.539 17.445-65.051 18.336-10.523 31.738-32.688 31.441-54.648 15.953 1.5391 28.781-9.3359 24.688-25.332 17.809 1.1641 26.043-24.285 12.043-34.621 40.109 1.332 94.738 5.4961 130.87 27.82 60.031 35.508 44.219 101.2 6.9727 146.99-33.992-14.93-70.723-29.527-104.81-43.605l-0.011719 0.015626c-7.2656-2.8672-12.469-4.7812-15.059-5.5 1.5117-3.4492 3.1133-6.2422 5.2734-9.4102 157.11 63.984 173.05 42.605 1.8867-3.1836 7.0391-12.871 6.3906-12.441 11.238-22.789 12.508-1.4727 18.75-4.6094 25.809-6.7031 0 0 21.734-7.0586 20.312-11.332-1.3398-4.0234-23.465 3.4453-23.465 3.4453-7.043 2.4922-8.7734 2.4648-19.703 7.4219 6.6523-15.688 4.1367-24.961-6.1445-5.0547-8.9648 17.84-7.3867 14.398-15.293 32.609-9.9766 24.648-24.395 47.086-38.66 70.434-23.914 39.434-46.934 56.977-88.91 72.027zm205.92-87.301c-13.559 11.715-37.348 11.367-54.562 13.277-2.4766 0.76562-55.977 1.3125-41.477-5.043 22.035-3.4609 40.629-2.6406 59.168-4.918 9.418-0.89062 20.254-2.4219 29.613-3.832 2.457-0.16797 6.625-1.7031 7.2578 0.51562zm-153.13 125.98c-11.992-9.2383-47.551-56.828-9.6797-21.168 19.008 18.449 21.852 21.176 39.328 36.863 3.9688 4.2891 14.086 11.031 14.629 15.867-10.547 0.47266-35.016-22.945-44.281-31.566zm46.723 70.234c16.746-5.5781 16.016-5.3359 28.418-9.4688 2.2188 5.2422 4.5078 10.586 6.7266 15.77-31.418 7.5117-49.055 16.074-71.805 24.121 8.3047-9.1797 14.605-14.41 22.16-25.605 5.5312-1.8398 10.406-3.457 14.496-4.8164zm-69.887 44.18c10.25-10.227 23.125-22.871 31.164-32.441 0.10938 0.21484 0.36328 0.71484 0.46875 0.92188 2.0547-0.56641 4.2344-1.3984 6.2969-2.0469-1.2773 3.6914-4.3086 16.184-5.3633 20.066-9.8359 3.8047-25.176 9.9609-33.535 14.457zm112.58-20.168c-28.332 9.7812-46.945 16.336-77.762 27.148-8.2461 2.8359-19.516 7.1523-28.891 10.203-6.0859 1.3398-11.945-4.8906-10.25-10.953 10.531-0.85938 50.086-15.66 50.086-15.66 14.41-5.793 38.594-13.117 60.598-25.344 2.1406 5.0273 4.2422 9.7461 6.2695 14.598l-0.050782 0.003906zm1.8477-58.785c-0.33203 3.8164-10.812-12.93-18.195-24.641-14.684-23.707-29.43-49.16-43.023-72.805 52.043-7.918 109.12-19.641 153.32-49.777 5.8047-4.5195 5.7148-2.1914 1.9961 2.0664-37.691 35.645-93.695 45.191-141.79 54.348 13.52 24.141 27.906 49.48 40.535 74.289 6.1055 3.7812 12.211 7.5586 18.258 11.305 1.3711-1.3594 2.7383-2.7109 4.1016-4.0625 2.6016 1.3438 5.2383 2.7383 7.8633 4.0625l-21.668 7.793-1.4023-2.582zm25.266 49.453-2.7031 1.0234c13.168-69.055 4.0781-43.543 41.305-108 2.7109 1.2852 5.6367 2.7227 8.3438 3.9961-5.8281 6.0625-21.121 43.926-21.121 43.926-4.8906 13.145-15.445 34.832-20.203 56.938-3.5781 1.3477-5.6211 2.1172-5.6211 2.1172zm23.191-16.824c-1.4258 3.3086-2.8164 6.5273-4.168 9.6641-3.1562 1.1875-6.0078 2.2617-8.4883 3.1953 12.324-23.043 17.477-38.633 23.551-52.883 0 0 14.953-36.473 14.973-45.125 6.1133 2.918 12.309 5.7734 17.52 8.0312-5.5273 1.5508-12.074 6.6172-11.316 12.281 6.0039-6.4688 17.008-11.527 24.957-3.0312-4.4336-0.38281-12.133 2.2031-12.133 2.2031-4.4141 1.6484-6.6367 1.5742-13.426 5.6523 4.0195-22.051-28.617 53.727-31.473 60.016zm43.184-8.3281c-7.0312 2.6719-29.578 11.195-36.52 13.852-0.019531 0.023438-0.035156 0.039063-0.10547 0.085938 0.625-2.0938 1.6992-4.1367 2.4883-6.2617 5.5938 0.23047 17.523-4.1289 17.523-4.1289 6.0469-2.3711 8.7734-2.5664 18.234-7.7617-0.67188 1.7422-1.2188 3.1719-1.6172 4.2109zm7.4023-19.246c-1.2578 3.2734-2.4258 6.3086-3.4648 9.0039-5.0312-0.89062-18.496 4.0312-18.496 4.0312-5.9883 2.3086-7.5 2.2422-16.715 6.8867 1.5742-3.8398 3.125-7.707 4.6758-11.582 5.8086 0.066406 17.039-3.7305 17.039-3.7305 6.1016-2.207 8.3516-2.2461 17.898-7.0156-0.31641 0.80859-0.63281 1.6211-0.94141 2.4023zm6.0977-15.574c-0.90625 2.3125-1.793 4.5859-2.668 6.8125-5.3711-0.63281-18.086 3.668-18.086 3.668-6.0156 2.1445-7.2891 2-16.508 6.2891 1.4805-3.7734 2.8633-7.332 4.2539-11 4.8242 0.99609 17.312-3.2734 17.312-3.2734 5.6914-2.1211 8.6523-2.2812 17.562-7.1992-0.625 1.5781-1.25 3.1484-1.8672 4.707zm4.3516-11.809c-0.066406 0.52344-0.22656 1.0273-0.35156 1.5391-4.4492-1.3867-17.75 3.1602-17.75 3.1602-5.6992 2.1016-8.1016 2.1562-17.004 6.8594 1.5625-4.2422 2.9141-8.082 3.957-11.305 5.8477 2.1406 25.84-4.4648 29.723-9.5 1.4531 2.7969 2.0117 6.125 1.4258 9.2461z"/>
  <path d="m158.64 310.27c4.9688-1.1328 5.5156-4.1445-0.3125-5.0039-5.4414-1.082-14.477 0.51953-19.539 2.6172-10.961 4.4805-19.457 11.078-23.047 22.719-0.73047 2.5195-1.6602 8.0547 0.85547 8.9062 2.4141-0.35938 4.1797-5.7109 6.0742-8.0586 2.7695-4.3203 6.5273-8.207 10.285-10.852 7.1836-5.2461 17.098-7.9727 25.684-10.332z"/>
  <path d="m333.25 145.12c13.426-0.003907 13.422-28.527 0-28.527-13.426 0.003906-13.422 28.527 0 28.527z"/>
  <path d="m272.86 159.93c16.914 5.7734 20-0.52344 2.9336-7.5312-0.070313-0.12109 0.066406-0.19922 0.070312-0.21094 8.1797-5.6875 20.824-23.949 1.1016-11.379-6.082 4.1797-12.137 9.6914-17.633 14.242 2.3281 0.88672 9.3125 3.4336 13.527 4.8789z"/>
  <path d="m282.38 179.56c2.2305 3.457 9.9492 0.76172 14.004-1.0859 8.1875-4.1719 13.875-11.07 17.707-19.215 2.2539-4.8711 3.7773-10.523 3.9414-15.883 0.33203-7.707-3.3242-8.4805-5.7383-1.0781-4.3047 11.562-9.2734 22.578-19.918 29.809-3.0352 2.6367-9.0156 4.1836-9.9961 7.4531z"/>
  <use x="70" y="576.40625" xlink:href="#t"/>
  <use x="74.011719" y="576.40625" xlink:href="#d"/>
  <use x="76.710938" y="576.40625" xlink:href="#a"/>
  <use x="80.417969" y="576.40625" xlink:href="#k"/>
  <use x="84.109375" y="576.40625" xlink:href="#c"/>
  <use x="86.722656" y="576.40625" xlink:href="#a"/>
  <use x="90.433594" y="576.40625" xlink:href="#j"/>
  <use x="96.25" y="576.40625" xlink:href="#i"/>
  <use x="100.167969" y="576.40625" xlink:href="#h"/>
  <use x="105.636719" y="576.40625" xlink:href="#e"/>
  <use x="111.332031" y="576.40625" xlink:href="#b"/>
  <use x="115.089844" y="576.40625" xlink:href="#g"/>
  <use x="118.984375" y="576.40625" xlink:href="#f"/>
  <use x="122.621094" y="576.40625" xlink:href="#s"/>
  <use x="124.496094" y="576.40625" xlink:href="#f"/>
  <use x="70" y="581.875" xlink:href="#r"/>
  <use x="72.378906" y="581.875" xlink:href="#d"/>
  <use x="75.078125" y="581.875" xlink:href="#b"/>
  <use x="78.832031" y="581.875" xlink:href="#e"/>
  <use x="86.4375" y="581.875" xlink:href="#c"/>
  <use x="89.050781" y="581.875" xlink:href="#q"/>
  <use x="92.941406" y="581.875" xlink:href="#a"/>
  <use x="98.554688" y="581.875" xlink:href="#p"/>
  <use x="103.132812" y="581.875" xlink:href="#b"/>
  <use x="106.890625" y="581.875" xlink:href="#o"/>
  <use x="110.785156" y="581.875" xlink:href="#g"/>
  <use x="116.582031" y="581.875" xlink:href="#n"/>
  <use x="120.589844" y="581.875" xlink:href="#d"/>
  <use x="123.285156" y="581.875" xlink:href="#b"/>
  <use x="127.042969" y="581.875" xlink:href="#m"/>
  <use x="128.917969" y="581.875" xlink:href="#a"/>
  <use x="132.625" y="581.875" xlink:href="#l"/>
  <use x="135.867188" y="581.875" xlink:href="#c"/>
 </g>
</svg>
